<svg width="315" height="316" viewBox="0 0 315 316" fill="none" xmlns="http://www.w3.org/2000/svg">
<ellipse cx="154.5" cy="158" rx="18.5" ry="19" fill="#E63946" fill-opacity="0.85"/>
<path d="M154.5 89C192.325 89 223 119.886 223 158C223 196.114 192.325 227 154.5 227C116.675 227 86 196.114 86 158C86 119.886 116.675 89 154.5 89Z" stroke="#B20000" stroke-width="2"/>
<path d="M154.907 42C219.53 42 271.917 93.935 271.917 158L271.907 159.499C271.098 222.873 219.025 274 154.907 274C97.8727 274 50.3687 233.545 40 180H42.041C52.3821 232.422 98.9697 272 154.907 272C218.441 272 269.917 220.944 269.917 158C269.917 95.0558 218.441 44 154.907 44C98.9697 44.0003 52.3821 83.5776 42.041 136H40C50.3687 82.4555 97.8727 42.0003 154.907 42Z" fill="#B20000"/>
<path d="M155.226 2C241.81 2.00013 312 71.8437 312 158C312 244.156 241.81 314 155.226 314C76.1462 314 10.7437 255.739 0 180H40.5527C50.8892 233.425 98.1584 274 155.226 274C212.293 274 259.562 233.425 269.898 180H218.677C209.572 206.758 184.321 226 154.594 226L153.719 225.994C116.729 225.524 86.8877 195.262 86.8877 158C86.8877 120.445 117.201 90.0002 154.594 90L155.469 90.0059C184.815 90.3792 209.661 109.505 218.677 136H269.898C259.562 82.5749 212.293 42.0001 155.226 42C98.1584 42.0001 50.8892 82.5748 40.5527 136H0C10.7437 60.2612 76.1462 2.0001 155.226 2ZM154.594 138C143.907 138 134.888 146.758 134.888 158C134.888 169.242 143.907 178 154.594 178C165.281 178 174.3 169.242 174.3 158C174.3 146.758 165.281 138 154.594 138Z" fill="white"/>
<path d="M156.253 0C243.39 0.00010739 314.024 70.7418 314.024 158C314.024 245.258 243.39 316 156.253 316C76.5709 316 10.6901 256.845 0 180H2.02051C12.6042 255.091 76.5715 313.002 154.239 313.987L156.253 314C241.611 314 310.934 245.244 312.012 160.017L312.024 158C312.024 72.5165 243.368 3.09201 158.266 2.0127L156.253 2C77.6796 2.00016 12.6945 60.2612 2.01953 136H0C10.6901 59.1549 76.5709 0.000163207 156.253 0Z" fill="#B20000"/>
</svg>
